<?xml version="1.0" encoding="UTF-8" standalone="no"?>
<!-- Created with Inkscape (http://www.inkscape.org/) -->

<svg
   xmlns:dc="http://purl.org/dc/elements/1.1/"
   xmlns:cc="http://creativecommons.org/ns#"
   xmlns:rdf="http://www.w3.org/1999/02/22-rdf-syntax-ns#"
   xmlns:svg="http://www.w3.org/2000/svg"
   xmlns="http://www.w3.org/2000/svg"
   version="1.1"
   width="409.89044"
   height="141.4122"
   id="svg9466">
  <metadata
     id="metadata31">
    <rdf:RDF>
      <cc:Work
         rdf:about="">
        <dc:format>image/svg+xml</dc:format>
        <dc:type
           rdf:resource="http://purl.org/dc/dcmitype/StillImage" />
        <dc:title></dc:title>
      </cc:Work>
    </rdf:RDF>
  </metadata>
  <defs
     id="defs9468" />
  <g
     transform="translate(-457.79731,-572.32788)"
     id="layer1">
    <path
       d="m 528.52854,706.42738 c 35.1345,0 63.6595,-28.50156 63.6595,-63.6582 0,-35.16942 -28.525,-63.67098 -63.6595,-63.67098 -35.17317,0 -63.69821,28.50156 -63.69821,63.67098 0,35.15664 28.52505,63.6582 63.69821,63.6582"
       id="path2662"
       style="fill:#d8dfe1;fill-opacity:1;fill-rule:nonzero;stroke:none" />
    <path
       d="m 528.52854,581.72185 c -33.74306,0 -61.06988,27.33693 -61.06988,61.04733 0,33.71043 27.32682,61.03458 61.06988,61.03458 33.70434,0 61.0312,-27.32415 61.0312,-61.03458 0,-33.7104 -27.32686,-61.04733 -61.0312,-61.04733"
       id="path2664"
       style="fill:#0d254d;fill-opacity:1;fill-rule:nonzero;stroke:none" />
    <path
       d="m 562.23288,597.93715 c -9.00585,-9.03552 -20.98791,-14.01402 -33.70434,-14.01402 -12.75509,0 -24.73719,4.9785 -33.74306,14.01402 -9.00586,9.02271 -13.95327,21.02742 -13.95327,33.80001 0,0 0,22.6656 0,22.98555 0,0 0,0.012 0,0.012 l 0,0 c 0.2316,12.41424 5.17935,24.06057 13.95327,32.86575 9.00587,9.02271 20.98797,14.00121 33.74306,14.00121 12.71643,0 24.69849,-4.9785 33.70434,-14.00121 8.81263,-8.83077 13.76008,-20.50272 13.95331,-32.95536 l 0.0387,-22.90875 c 0,-12.77259 -4.98605,-24.77727 -13.99194,-33.80001 z m -0.88895,88.69143 c -8.77399,8.77956 -20.44683,13.63008 -32.81539,13.63008 -12.40724,0 -24.0801,-4.85052 -32.85405,-13.63008 -8.54205,-8.56197 -13.33491,-19.87557 -13.56681,-31.94427 0.1932,-3.35313 0.7344,-6.64227 1.62339,-9.81621 7.15056,18.37818 24.85314,30.58767 44.64285,30.58767 19.94434,0 37.68552,-12.24786 44.7588,-30.66447 0.92763,3.12276 1.54605,6.34791 1.77801,9.62424 -0.1545,12.17109 -4.98612,23.58705 -13.56681,32.21304 z m -76.87845,-43.80819 c 2.35773,-7.167 6.53211,-13.68126 12.17534,-18.95412 8.65801,-8.05005 20.02161,-12.49104 32.04235,-12.49104 11.71149,0 22.95915,4.50498 31.65581,12.68301 5.60455,5.27286 9.77892,11.69754 12.25263,18.73656 -6.45486,18.76212 -24.15738,31.35555 -44.10174,31.35555 -19.82838,0 -37.49229,-12.58062 -44.0244,-31.32996 z m 90.4839,3.80106 c -2.24185,-8.83074 -6.996,-16.932 -13.83739,-23.36949 -8.92854,-8.4084 -20.48546,-13.02855 -32.54484,-13.02855 -12.32988,0 -24.00276,4.55616 -32.89266,12.83658 -6.76407,6.2967 -11.44095,14.30838 -13.56681,23.12631 l 0,-14.39796 c 0,-12.42702 4.8315,-24.11178 13.56681,-32.90412 8.77395,-8.79237 20.44681,-13.63008 32.85405,-13.63008 12.36856,0 24.0414,4.83771 32.81539,13.63008 8.77395,8.79234 13.60545,20.4771 13.60545,32.90412"
       id="path2666"
       style="fill:#d8dfe1;fill-opacity:1;fill-rule:nonzero;stroke:none" />
    <path
       d="m 517.74465,593.90572 c 2.51238,-0.63993 6.06834,-0.93426 6.06834,-0.93426 l 4.67688,9.63702 4.71555,-9.63702 c 0,0 3.20808,0.2943 6.06828,0.93426 l 4.29042,12.5934 0.96627,-11.16 c 3.16941,0.88308 6.02964,2.12448 9.50835,3.99303 3.13074,1.66377 3.67188,3.57069 3.43998,5.51601 -0.0387,0.0384 -0.2703,1.98372 -2.6283,1.15185 -0.0387,0 4.05844,2.1501 3.16941,6.16872 -0.348,1.44618 -1.77798,2.1885 -3.98109,0.95985 -1.9326,-1.11342 -4.0971,-2.27808 -6.64812,-3.27633 -4.52229,-1.76613 -7.80768,-2.32926 -7.80768,-2.32926 l -0.88899,-2.67483 c -2.97618,-0.6015 -6.30027,-0.80628 -6.30027,-0.80628 l -1.08225,2.36766 c -1.54605,-0.0639 -3.98115,-0.0639 -5.64315,0 l -1.0436,-2.36766 c -2.89887,0.1536 -6.30025,0.80628 -6.30025,0.80628 l -0.88899,2.67483 c -1.50741,0.30717 -2.97621,0.66549 -4.75416,1.20303 l 0.2709,-0.8319 c -2.8989,2.31648 -5.41128,3.35313 -5.41128,3.37872 -1.89393,0.92148 -7.07324,3.53232 -8.31011,0.99828 -0.38649,-0.57594 -0.34801,-1.79175 -0.34801,-1.79175 1.54611,-0.99825 3.74926,-2.13729 5.2953,-3.00759 0,0 -0.77301,3.18675 2.43507,1.4718 1.15959,-0.56313 2.3578,-1.36941 2.89891,-2.58522 0.73437,-2.08611 -1.54608,-1.67658 -2.3964,-1.42062 -1.4688,0.42234 -6.84138,2.25249 -6.88005,-1.36938 0,-2.59806 3.47868,-5.24727 7.2279,-6.78306 5.60454,-2.31648 7.53707,-0.2049 7.38252,1.53579 -2.24184,0.6399 -2.74428,0.81909 -4.67688,1.45899 0.0387,-0.65271 -0.42519,-1.62537 -2.82159,-0.65271 -2.28045,1.13904 -2.8989,2.03493 -2.55102,3.02037 0.42519,1.30542 4.01979,-0.0897 4.94742,-0.2814 5.0634,-1.08783 4.40634,2.34207 4.40634,2.43165 0,0 3.5946,-10.39212 3.5946,-10.39212 z m 1.43013,8.39562 c 0.9663,-0.2049 2.74428,-0.47355 4.36764,-0.62712 0,0.024 -2.43507,-5.28567 -2.43507,-5.28567 l -1.93257,5.91279 z m 28.67967,4.58175 c 1.35282,0.51192 3.59463,1.62537 4.67688,2.23968 0,0 1.15953,0.84468 1.70067,0.1152 0.42516,-0.85749 0.1158,-1.70217 -1.77798,-2.71323 -1.19823,-0.70389 -3.51732,-1.70214 -4.3677,-2.04771 l -0.2316,2.40606 z m 0.46383,-5.28567 c 0,0 1.97124,0.81909 3.24672,1.4334 0.50247,0.2304 0.81168,0.47352 1.39149,0.51192 0.4638,-0.0639 0.61839,-0.33273 0.65706,-0.5631 0.1545,-1.29264 -1.27551,-1.86855 -1.77798,-2.12451 -1.43013,-0.7167 -1.89393,-0.90867 -3.32409,-1.49739 0,0.027 -0.1932,2.23968 -0.1932,2.23968 z m -14.84235,0.0768 c 1.54614,0.1536 2.51241,0.2559 4.36767,0.62712 0.0387,0 -1.9326,-5.91276 -1.9326,-5.91276"
       id="path2668"
       style="fill:#d6ab3c;fill-opacity:1;fill-rule:nonzero;stroke:none" />
    <path
       d="m 505.18284,641.77093 c 1.54605,0.70392 2.78289,1.20303 4.13571,1.01106 3.0922,-0.43515 4.01983,-1.65096 6.84139,-0.83187 1.27551,0.38394 2.28048,1.4334 2.28048,1.4334 0,0 -0.73441,-0.2559 -1.50744,-0.30717 -3.01485,-0.1791 -5.44992,2.13729 -8.38743,1.38219 -2.62836,-0.6783 -3.3627,-2.68761 -3.3627,-2.68761"
       id="path2670"
       style="fill:#d8dfe1;fill-opacity:1;fill-rule:nonzero;stroke:none" />
    <path
       d="m 521.95771,642.18049 c -1.00491,0.84468 -3.13081,5.4648 -8.61933,2.86677 -0.1545,0.55032 0.1932,2.32929 1.08225,3.5835 0.7344,1.17744 2.66697,1.67658 4.09707,1.53579 -1.70067,1.56138 -0.57975,3.92904 -0.42516,7.46133 0.96627,-1.93251 2.66697,-2.77719 2.66697,-2.77719 0,0 -1.73931,3.16116 -1.73931,4.8249 -0.1545,2.66202 2.58966,4.96572 4.98605,8.47242 0.69574,-4.10823 0.54115,-5.59281 1.31416,-7.99887 0.61845,1.42059 1.31418,8.43399 1.08225,11.1984 4.0971,-3.28914 8.81262,-3.37872 6.72543,-12.06867 1.27551,1.56135 2.43507,4.70973 2.78292,6.53985 l 0,0 c 1.97127,-3.16113 6.53216,-5.17047 3.01485,-13.51488 1.9326,1.56138 2.58969,4.2618 3.3627,5.27286 0.57978,-3.99303 2.86023,-10.11057 -2.12583,-14.70513 l 0,-0.0384 c 1.27548,0.40956 2.82156,1.53579 3.71058,2.84121 0,-3.59628 2.28045,-5.64399 -2.78295,-11.82552 0.92763,-1.5486 1.62339,-3.37872 1.89393,-5.23446 -1.89393,0.2175 -4.17438,0.61431 -5.79774,1.45899 -0.0774,-0.1536 -0.42519,-0.81909 -1.35282,-0.92148 l -14.57175,0 c -1.00494,0 -1.9326,1.35663 -2.51235,3.96744 -0.0387,-0.024 -0.5025,-0.40953 -1.15959,-0.65271 -1.73931,-0.6783 -5.91369,-0.7167 -7.15056,3.07158 -0.65709,1.79175 -0.1158,4.9017 -0.1158,4.9017 0,0 4.5609,-3.40431 6.76407,0.55032 m 3.3627,-3.96744 c -0.73437,-0.44793 -1.23687,-1.80453 -0.348,-2.49564 0.61839,-0.48633 2.3964,0.42234 1.04358,1.86852 1.27551,0.7167 2.00988,-0.47352 2.04855,-0.89586 l 0.42516,-0.0384 c -0.1545,0.88308 -1.39146,2.70042 -3.16944,1.56138"
       id="path2672"
       style="fill:#d8dfe1;fill-opacity:1;fill-rule:nonzero;stroke:none" />
    <path
       d="m 535.75639,628.25605 c 0.46389,0 0.85037,0.31995 0.85037,0.31995 l 5.7205,-12.40146 c -6.14566,0.012 -3.94249,4.10823 -3.82654,4.3386 0.0774,0.2433 -0.34799,0.1281 -0.34799,0.1281 -0.348,-0.35835 -0.88902,-0.58872 -1.43016,-0.58872 -1.19821,0 -2.1645,0.94707 -2.1645,2.12451 0,1.17741 0.9663,2.13729 2.1645,2.13729 0.1545,0 0.34799,-0.027 0.54114,-0.0639 0,0 -4.17438,3.95463 -7.53708,-1.17744 -0.2319,-0.38394 0.348,0.46074 1.35279,0.46074 1.15956,0 2.12586,-0.95985 2.12586,-2.12451 0,-1.17741 -0.9663,-2.13729 -2.12586,-2.13729 -0.46383,0 -0.88899,0.1407 -1.23684,0.38394 l 0,-0.027 c 0.50244,-0.39672 0.81168,-0.99825 0.81168,-1.67655 0,-1.17744 -0.9663,-2.13729 -2.12583,-2.13729 l -0.0387,0 c -1.15959,0 -2.12586,0.94707 -2.12586,2.12448 0,0.6783 0.309,1.27983 0.81171,1.67658 l 0,0.027 c -0.348,-0.2304 -0.77307,-0.37113 -1.19826,-0.37113 -1.1982,0 -2.12583,0.94704 -2.12583,2.12448 0,1.17744 0.92763,2.12451 2.12583,2.12451 0.9663,0.012 1.54611,-0.84468 1.31421,-0.44793 -3.3627,5.11926 -7.49847,1.16463 -7.49847,1.16463 0.1545,0.0513 0.348,0.0639 0.54111,0.0639 1.15959,0 2.12586,-0.94707 2.12586,-2.12451 0,-1.17744 -0.96627,-2.12451 -2.12586,-2.12451 -0.57978,0 -1.08225,0.2175 -1.46874,0.58872 0,0 -0.42519,0.1023 -0.30939,-0.1281 0.0771,-0.2433 2.28045,-4.33857 -3.86517,-4.33857 l 5.72049,12.38865 c 0,0 0.38652,-0.30717 0.88896,-0.30717 0.42519,0 13.99197,0 14.45574,0"
       id="path2674"
       style="fill:#d6ab3c;fill-opacity:1;fill-rule:nonzero;stroke:none" />
    <path
       d="m 542.55912,642.21886 c 0.348,-1.34379 0.19321,-3.23793 -2.70564,-6.34788 -0.92763,1.01106 -1.9326,1.91973 -2.97618,2.76441 0.348,3.80106 0.50247,9.62424 -2.66697,12.65739 0,0 0.0387,-2.47005 -1.35279,-5.15766 -0.1545,3.37872 -1.66206,6.84702 -4.75419,8.94594 0,0 0.54114,-2.35488 0.1932,-6.4887 -0.50247,1.53579 -1.73931,3.09717 -3.55592,3.71148 l -0.81169,-4.28739 c 0,0 1.54606,-1.08786 1.54606,-1.12623 0,0.0384 0.50244,2.43165 0.50244,2.43165 1.62342,-1.53579 0.30939,-3.99303 1.85532,-4.54335 0.81168,-0.2559 1.27548,0.35835 1.50743,0.87027 0.73434,1.48458 0.73434,2.7516 0.77305,4.35138 0.96627,-2.25249 1.00496,-4.47936 0.65706,-7.0134 -0.11581,-0.87027 0.30935,-1.33101 0.81168,-1.48461 0.54111,-0.1152 0.9663,0.192 1.35281,0.62712 0.96631,1.20303 1.5847,2.79 1.97124,4.19781 0.61842,-2.13729 0.69576,-5.18328 -0.0387,-7.30776 -0.0771,-0.40956 -0.2316,-0.85749 -0.2316,-0.85749 2.20314,-1.88133 4.25169,-4.08261 5.41125,-6.85983 -3.09213,0.90867 -7.15059,3.36594 -7.15059,3.36594 l -0.85029,-0.89589 3.20808,-2.50845 c 0.1932,-0.1536 0.30939,-0.38394 -0.2709,-0.39672 l -11.86608,0.012 c -1.15959,0 -2.24184,0.35835 -2.28048,2.25246 l 1.50741,1.25424 c 0,0 1.81665,-0.69111 3.55602,0.51192 l -0.2316,1.02387 c 0,0 -0.77307,-0.52473 -1.15956,-0.2304 -0.9663,2.50842 -2.62833,2.87958 -3.94251,2.38044 -1.46877,-0.61431 -1.70067,-2.34207 -1.93254,-3.27633 -2.55105,-1.4718 -6.53217,-1.71495 -6.84138,2.77722 2.74428,-1.22862 5.48856,0.2688 6.2616,1.79175 l 7.07325,2.04771 c -2.43507,1.80453 -5.68182,7.51251 -9.6243,5.6568 2.74428,2.99475 5.83644,-0.74232 6.80274,0.81906 1.00491,1.67658 -3.63327,2.09892 -2.86026,6.34791 0.69579,-0.70389 2.04855,-2.17569 3.01482,-1.29261 0.54114,0.49911 0.2709,1.21581 0.1158,1.4334 -2.00991,4.2618 -2.8989,6.2199 0.38652,9.58584 0.69576,-5.19606 1.00491,-6.60387 2.35773,-6.65505 2.00988,0 2.667,8.72835 2.78298,10.90404 3.98112,-2.58522 4.5609,-3.04596 3.28542,-9.41946 -0.2316,-1.13904 -0.0771,-1.79175 0.6957,-2.09892 0.85035,-0.31995 1.58475,0.2559 1.8939,0.7935 0.9663,1.45899 1.93263,3.14835 2.47377,4.87611 1.00491,-1.67655 3.67191,-2.85399 0.77304,-9.89301 -0.5025,-0.87027 -0.38655,-1.61256 0.2316,-2.02209 1.46877,-0.97266 3.43998,1.44618 4.0971,2.61081 -0.11581,-2.48283 1.08225,-5.59281 -2.78298,-9.53463 -0.65706,-0.7551 -0.65706,-1.31823 -0.1158,-1.84296 0.8117,-0.87027 2.82159,-0.1023 3.90383,0.53754"
       id="path2676"
       style="fill:#db1c30;fill-opacity:1;fill-rule:nonzero;stroke:none" />
    <path
       d="m 524.66335,639.8128 c 2.08719,-0.40953 1.7007,1.4718 4.09709,1.93254 -1.97127,0.7551 -2.8989,-1.59978 -4.09709,-1.93254"
       id="path2678"
       style="fill:#d8dfe1;fill-opacity:1;fill-rule:nonzero;stroke:none" />
    <path
       d="m 537.45708,633.49051 c -0.81168,1.25421 -2.00987,2.34207 -3.47868,2.68761 0.65712,-1.08783 1.9326,-2.53404 3.47868,-2.68761"
       id="path2680"
       style="fill:#d8dfe1;fill-opacity:1;fill-rule:nonzero;stroke:none" />
    <path
       d="m 494.74683,668.45515 c -0.4638,-0.38394 -0.77301,-0.6399 -1.23684,-1.20303 l -0.0387,-1.98372 c 1.23687,1.27983 2.5897,2.43165 3.94248,3.45552 l 0.0387,1.91973 c -0.50247,-0.35835 -0.9663,-0.7551 -1.43016,-1.13904 l 0,11.85111 c -0.42516,-0.30714 -0.88896,-0.70389 -1.27548,-1.03665 0,0 0,-11.86392 0,-11.86392"
       id="path2682"
       style="fill:#d8dfe1;fill-opacity:1;fill-rule:nonzero;stroke:none" />
    <path
       d="m 498.41877,669.46621 c 1.54605,1.17744 2.35773,1.66377 3.51732,2.34207 l 0.0387,1.89414 c -0.81171,-0.46074 -1.43013,-0.7551 -2.31909,-1.40781 l 0.0387,3.63468 c 0.85035,0.55032 1.50741,0.95988 2.08719,1.30542 l 0,1.59978 c -0.69573,-0.40956 -1.27548,-0.74229 -2.08719,-1.29261 l 0,4.68414 c 0.81168,0.51192 1.35279,0.87027 2.43504,1.49736 l 0.0387,2.00934 c -1.85526,-1.16466 -2.08719,-1.30542 -3.74919,-2.47005 0,0 0,-13.79646 0,-13.79646"
       id="path2684"
       style="fill:#d8dfe1;fill-opacity:1;fill-rule:nonzero;stroke:none" />
    <path
       d="m 507.57925,687.8956 c -3.74919,2.03493 -5.91373,-6.43749 -4.05847,-12.91338 0.348,-1.22862 1.4688,-2.80278 3.90387,0.012 l 0,1.74057 c -1.93257,-2.77722 -2.86026,-1.95813 -2.97618,2.44446 -0.1158,7.81968 1.70067,7.70451 3.1308,6.71904"
       id="path2686"
       style="fill:#d8dfe1;fill-opacity:1;fill-rule:nonzero;stroke:none" />
    <path
       d="m 508.77744,675.28939 c 0.5025,0.2304 0.7344,0.33273 1.50741,0.6015 l 0,6.05355 c 0.69574,0.2433 1.43014,0.47355 2.1645,0.62712 l 0,-5.93835 c 0.65709,0.2559 0.96631,0.30714 1.46877,0.44793 l 0,13.82205 c -0.50247,-0.1281 -0.96627,-0.2688 -1.4301,-0.42234 l 0,-6.21993 c -0.7344,-0.2175 -1.46877,-0.46074 -2.20317,-0.7167 l 0,6.14313 c -0.4638,-0.1665 -0.9663,-0.38394 -1.50741,-0.6399 0,0 0,-13.75806 0,-13.75806"
       id="path2688"
       style="fill:#d8dfe1;fill-opacity:1;fill-rule:nonzero;stroke:none" />
    <path
       d="m 516.00535,677.66986 c 0.57978,0.1665 0.85035,0.2175 1.31415,0.31995 0.81168,2.62362 1.81665,6.50148 2.667,9.11229 0,0 0,0 0.0387,0 l 0,-8.61318 c 0.46383,0.1023 1.00494,0.2175 1.4688,0.2688 l 0,13.74528 c -0.4252,-0.0384 -0.69576,-0.1023 -1.12092,-0.1665 -0.85035,-2.63643 -2.00988,-6.23274 -2.82159,-8.86917 0,0 -0.0387,0 -0.0387,0 l 0.0387,8.33163 c -0.46383,-0.1023 -1.08225,-0.2175 -1.54608,-0.31995 0,0 0,-13.80924 0,-13.80924"
       id="path2690"
       style="fill:#d8dfe1;fill-opacity:1;fill-rule:nonzero;stroke:none" />
    <path
       d="m 531.65935,679.06486 c 0.54111,-0.0384 0.96627,-0.0897 1.54607,-0.1665 l 0,12.00468 c 1.15957,-0.0513 2.28045,-0.2433 3.32407,-0.42234 l 0,1.81734 c -1.58475,0.2559 -3.28543,0.46074 -4.87014,0.57594 0,0 0,-13.80924 0,-13.80924"
       id="path2692"
       style="fill:#d8dfe1;fill-opacity:1;fill-rule:nonzero;stroke:none" />
    <path
       d="m 550.792,687.11491 c -2.8989,3.67308 -6.26161,1.94532 -5.99106,-4.81212 0.1545,-4.45377 2.24181,-8.4852 5.91372,-7.58931 l 0.0387,1.84293 c -5.02473,-2.26527 -4.67688,7.38456 -4.0584,9.40668 0.57971,1.88133 1.73931,1.56138 2.6283,0.97266 l -0.0387,-4.10823 c -0.30942,0.1536 -0.69576,0.34557 -1.04364,0.49914 l 0,-1.66377 c 0.85035,-0.34557 1.77801,-0.74229 2.55105,-1.19025"
       id="path2694"
       style="fill:#d8dfe1;fill-opacity:1;fill-rule:nonzero;stroke:none" />
    <path
       d="m 552.49263,673.06249 c 0.50247,-0.2559 0.92766,-0.49911 1.39149,-0.76788 l 0.0387,13.87323 c -0.4638,0.2559 -0.92763,0.51195 -1.39143,0.76791"
       id="path2696"
       style="fill:#d8dfe1;fill-opacity:1;fill-rule:nonzero;stroke:none" />
    <path
       d="m 555.77805,671.19397 c 1.31416,-0.76788 2.3964,-1.62537 3.55599,-2.49564 l -0.0387,1.91973 c -0.77304,0.55032 -1.43016,1.04943 -2.20317,1.56138 l 0,3.83946 c 0.81169,-0.47355 1.27552,-0.7935 2.04855,-1.40781 l 0,1.61256 c -0.77304,0.58872 -1.31415,0.98547 -2.04855,1.4334 l -0.0387,4.59456 c 0.9663,-0.60153 1.62336,-1.10064 2.39643,-1.68936 l 0,1.79175 c -1.15957,0.97266 -2.47371,1.94532 -3.74925,2.7516 0,0 0.0774,-13.91163 0.0774,-13.91163"
       id="path2698"
       style="fill:#d8dfe1;fill-opacity:1;fill-rule:nonzero;stroke:none" />
    <path
       d="m 560.49357,679.42321 c 0.85036,0.57591 2.28045,-0.99828 1.85526,-2.93079 -0.50243,-2.12451 -2.12582,-3.95463 -1.8939,-6.52707 0,-0.0384 0.34797,-3.63468 2.78295,-4.47936 l 0,1.62537 c -1.58474,0.2943 -1.66202,2.12448 -1.66202,2.20128 0,0.6783 0.1545,1.13904 0.1932,1.26702 0.38652,0.98547 0.92763,2.0733 1.31412,3.03318 1.77801,4.13379 -0.50247,7.6149 -2.55102,7.58931 0,0 -0.0387,-1.77894 -0.0387,-1.77894"
       id="path2700"
       style="fill:#d8dfe1;fill-opacity:1;fill-rule:nonzero;stroke:none" />
    <path
       d="m 529.68808,686.06545 c 0,3.95466 -0.69574,7.167 -3.24676,7.15419 -2.28044,-0.012 -3.24675,-3.19953 -3.24675,-7.15419 0,-3.95463 0.96631,-7.15416 3.24675,-7.15416 2.43507,0 3.24676,3.19953 3.24676,7.15416 z m -3.24676,-5.38803 c -1.1982,0.012 -1.77797,2.50845 -1.77797,5.45202 0,2.9436 0.57978,5.32407 1.77797,5.32407 1.15957,0 1.81665,-2.38047 1.81665,-5.32407 0,-2.94357 -0.65709,-5.45202 -1.81665,-5.45202"
       id="path2702"
       style="fill:#d8dfe1;fill-opacity:1;fill-rule:nonzero;stroke:none" />
    <path
       d="m 543.40948,684.40171 c 0,3.91623 -0.69573,7.10298 -3.24675,7.09017 -2.31912,-0.012 -3.24676,-3.17394 -3.24676,-7.09017 0,-3.90345 0.92764,-7.07742 3.24676,-7.07742 2.43507,0 3.24675,3.17397 3.24675,7.07742 z m -3.24675,-5.33685 c -1.19821,0.012 -1.81665,2.49564 -1.81665,5.40084 0,2.91798 0.61845,5.27283 1.81665,5.27283 1.15953,0 1.77797,-2.35485 1.77797,-5.27283 0,-2.9052 -0.61842,-5.40084 -1.77797,-5.40084"
       id="path2704"
       style="fill:#d8dfe1;fill-opacity:1;fill-rule:nonzero;stroke:none" />
    <path
       d="m 537.5344,633.75928 c -0.81171,1.26702 -2.00988,2.35485 -3.47866,2.70042 0.65706,-1.08786 1.9326,-2.54685 3.47866,-2.70042"
       id="path2708"
       style="fill:#d3d2d2;fill-opacity:1;fill-rule:nonzero;stroke:none" />
    <path
       d="m 524.70199,640.09438 c 2.08722,-0.40956 1.73937,1.47177 4.13574,1.93251 -2.00988,0.7551 -2.86023,-1.56138 -4.09704,-1.89411 l -0.0387,-0.0384"
       id="path2710"
       style="fill:#d3d2d2;fill-opacity:1;fill-rule:nonzero;stroke:none" />
  </g>
  <g
     transform="matrix(0.63105051,0,0,0.63105051,-136.27042,-346.9919)"
     id="layer1-8">
    <path
       d="m 854.00942,683.62104 c -0.322,-7.4656 -3.7363,-19.9652 -20.1634,-21.5436 14.62335,-2.19705 17.5222,-11.90235 17.5866,-19.5386 0.1285,-7.7642 -4.6382,-21.09565 -23.96415,-21.117 -2.77,0.02 -75.8864,0.02 -75.9508,0 l 0,62.2632 -26.2188,-62.2632 -47.4773,0 -22.74015,56.39735 -24.09295,-56.4187 -47.8639,0 -20.61425,52.2806 c -2.12585,-14.6539 -15.9761,-21.8422 -47.3485,-21.28765 -15.7828,0.2985 -21.1296,-1.8984 -21.1296,-8.42545 0,-6.29245 5.7333,-8.68145 13.7858,-8.40415 7.8592,0.3415 14.43,1.59975 14.49445,12.07295 l 37.29895,0 c 0.0645,-23.0794 -27.44275,-27.4521 -49.86085,-27.6441 -22.28915,-0.1065 -50.31175,4.5647 -51.02035,27.32415 -0.6442,22.6528 17.20005,26.70555 42.45255,26.36425 23.2555,-0.2775 22.869,6.5911 22.9978,9.0654 -0.0645,0.1495 0,0.2775 0,0.469 0.0645,2.68765 -1.41715,8.5108 -16.36255,8.25485 -10.8225,0 -14.17235,-4.906 -15.07425,-8.25485 -0.58,-1.85575 -0.4505,-3.2422 -0.4505,-3.1782 -7.53705,-0.064 -37.299,-0.064 -37.36335,0 0.0645,0.9812 0.129,2.0477 0.193,3.1782 1.54605,12.56355 12.69065,26.3856 55.0788,25.72435 33.9492,-0.3415 38.20085,-7.103 41.6151,-9.5133 l -2.51235,7.29495 30.98585,0 5.6045,-13.5021 42.32375,0 5.66895,13.5021 41.9372,0 5.60455,-13.5021 42.3237,0 5.60455,13.5021 101.7831,0 c 16.55585,0.02 22.80455,-14.142 22.869,-23.1007 -0.0645,-0.256 -0.0645,0.2345 0,0 z m -259.80465,-10.2599 12.81955,-31.0569 12.94835,31.0569 -25.7679,0 z m 95.53445,-0.02 12.8195,-31.01425 12.88395,31.01425 -25.70345,0 z m 93.2797,-19.3466 0,-12.2436 26.7342,0 c 3.4786,-0.02 6.11985,2.75165 6.11985,6.14315 0,3.3915 -2.9633,6.10045 -6.3131,6.10045 l -26.54095,0 z m 0,30.48105 0,-12.07295 28.53795,0 c 3.3498,0 6.3131,2.66625 6.3131,6.03645 0,3.34885 -2.9633,6.0578 -6.3131,6.0578"
       id="path2706"
       style="fill:#0d254d;fill-opacity:1;fill-rule:nonzero;stroke:none" />
  </g>
</svg>
